<mxfile host="app.diagrams.net" modified="2021-08-30T03:02:00.414Z" agent="5.0 (Windows NT 10.0; Win64; x64) AppleWebKit/537.36 (KHTML, like Gecko) Chrome/92.0.4515.159 Safari/537.36" etag="kcKk7_0wP6RSu9o4Yw6R" version="15.0.3" type="github">
  <diagram id="oPL3wzLIO99aDvWhy32e" name="Page-1">
    <mxGraphModel dx="1038" dy="547" grid="1" gridSize="10" guides="1" tooltips="1" connect="1" arrows="1" fold="1" page="1" pageScale="1" pageWidth="827" pageHeight="1169" math="0" shadow="0">
      <root>
        <mxCell id="0" />
        <mxCell id="1" parent="0" />
        <mxCell id="1-RgJNKFQ16oBWKKwFck-7" style="edgeStyle=orthogonalEdgeStyle;rounded=0;orthogonalLoop=1;jettySize=auto;html=1;exitX=0.75;exitY=1;exitDx=0;exitDy=0;entryX=0;entryY=0.25;entryDx=0;entryDy=0;" edge="1" parent="1" source="1-RgJNKFQ16oBWKKwFck-1" target="1-RgJNKFQ16oBWKKwFck-3">
          <mxGeometry relative="1" as="geometry" />
        </mxCell>
        <mxCell id="1-RgJNKFQ16oBWKKwFck-1" value="" style="rounded=0;whiteSpace=wrap;html=1;" vertex="1" parent="1">
          <mxGeometry x="160" y="260" width="120" height="60" as="geometry" />
        </mxCell>
        <mxCell id="1-RgJNKFQ16oBWKKwFck-8" style="edgeStyle=orthogonalEdgeStyle;rounded=0;orthogonalLoop=1;jettySize=auto;html=1;exitX=0.25;exitY=1;exitDx=0;exitDy=0;entryX=0.75;entryY=0;entryDx=0;entryDy=0;" edge="1" parent="1" source="1-RgJNKFQ16oBWKKwFck-2" target="1-RgJNKFQ16oBWKKwFck-3">
          <mxGeometry relative="1" as="geometry" />
        </mxCell>
        <mxCell id="1-RgJNKFQ16oBWKKwFck-2" value="" style="rounded=0;whiteSpace=wrap;html=1;" vertex="1" parent="1">
          <mxGeometry x="550" y="260" width="120" height="60" as="geometry" />
        </mxCell>
        <mxCell id="1-RgJNKFQ16oBWKKwFck-9" style="edgeStyle=orthogonalEdgeStyle;rounded=0;orthogonalLoop=1;jettySize=auto;html=1;exitX=1;exitY=0.5;exitDx=0;exitDy=0;entryX=0.667;entryY=1;entryDx=0;entryDy=0;entryPerimeter=0;dashed=1;" edge="1" parent="1" source="1-RgJNKFQ16oBWKKwFck-3" target="1-RgJNKFQ16oBWKKwFck-2">
          <mxGeometry relative="1" as="geometry" />
        </mxCell>
        <mxCell id="1-RgJNKFQ16oBWKKwFck-3" value="" style="rounded=0;whiteSpace=wrap;html=1;" vertex="1" parent="1">
          <mxGeometry x="370" y="480" width="120" height="60" as="geometry" />
        </mxCell>
        <mxCell id="1-RgJNKFQ16oBWKKwFck-5" value="" style="endArrow=classic;html=1;entryX=0;entryY=0.5;entryDx=0;entryDy=0;" edge="1" parent="1" target="1-RgJNKFQ16oBWKKwFck-1">
          <mxGeometry width="50" height="50" relative="1" as="geometry">
            <mxPoint x="80" y="290" as="sourcePoint" />
            <mxPoint x="140" y="260" as="targetPoint" />
          </mxGeometry>
        </mxCell>
        <mxCell id="1-RgJNKFQ16oBWKKwFck-6" value="" style="endArrow=classic;html=1;exitX=1.017;exitY=0.637;exitDx=0;exitDy=0;exitPerimeter=0;entryX=0;entryY=0.65;entryDx=0;entryDy=0;entryPerimeter=0;" edge="1" parent="1" source="1-RgJNKFQ16oBWKKwFck-1" target="1-RgJNKFQ16oBWKKwFck-2">
          <mxGeometry width="50" height="50" relative="1" as="geometry">
            <mxPoint x="390" y="410" as="sourcePoint" />
            <mxPoint x="440" y="360" as="targetPoint" />
          </mxGeometry>
        </mxCell>
        <mxCell id="1-RgJNKFQ16oBWKKwFck-10" value="Input" style="text;html=1;strokeColor=none;fillColor=none;align=center;verticalAlign=middle;whiteSpace=wrap;rounded=0;" vertex="1" parent="1">
          <mxGeometry x="60" y="250" width="40" height="20" as="geometry" />
        </mxCell>
        <mxCell id="1-RgJNKFQ16oBWKKwFck-11" value="view control" style="text;html=1;strokeColor=none;fillColor=none;align=center;verticalAlign=middle;whiteSpace=wrap;rounded=0;" vertex="1" parent="1">
          <mxGeometry x="394" y="250" width="96" height="20" as="geometry" />
        </mxCell>
        <mxCell id="1-RgJNKFQ16oBWKKwFck-12" value="Update Model" style="text;html=1;strokeColor=none;fillColor=none;align=center;verticalAlign=middle;whiteSpace=wrap;rounded=0;" vertex="1" parent="1">
          <mxGeometry x="150" y="400" width="60" height="30" as="geometry" />
        </mxCell>
        <mxCell id="1-RgJNKFQ16oBWKKwFck-13" value="Change&amp;nbsp;&lt;br&gt;notification" style="text;html=1;strokeColor=none;fillColor=none;align=center;verticalAlign=middle;whiteSpace=wrap;rounded=0;" vertex="1" parent="1">
          <mxGeometry x="670" y="420" width="80" height="60" as="geometry" />
        </mxCell>
        <mxCell id="1-RgJNKFQ16oBWKKwFck-14" value="query model" style="text;html=1;strokeColor=none;fillColor=none;align=center;verticalAlign=middle;whiteSpace=wrap;rounded=0;" vertex="1" parent="1">
          <mxGeometry x="450" y="370" width="40" height="20" as="geometry" />
        </mxCell>
        <mxCell id="1-RgJNKFQ16oBWKKwFck-15" value="View" style="text;html=1;strokeColor=none;fillColor=none;align=center;verticalAlign=middle;whiteSpace=wrap;rounded=0;" vertex="1" parent="1">
          <mxGeometry x="200" y="240" width="40" height="20" as="geometry" />
        </mxCell>
        <mxCell id="1-RgJNKFQ16oBWKKwFck-16" value="Controller" style="text;html=1;strokeColor=none;fillColor=none;align=center;verticalAlign=middle;whiteSpace=wrap;rounded=0;" vertex="1" parent="1">
          <mxGeometry x="630" y="240" width="40" height="20" as="geometry" />
        </mxCell>
        <mxCell id="1-RgJNKFQ16oBWKKwFck-17" value="Model" style="text;html=1;strokeColor=none;fillColor=none;align=center;verticalAlign=middle;whiteSpace=wrap;rounded=0;" vertex="1" parent="1">
          <mxGeometry x="450" y="540" width="40" height="20" as="geometry" />
        </mxCell>
        <mxCell id="1-RgJNKFQ16oBWKKwFck-18" value="WebServer" style="text;html=1;strokeColor=none;fillColor=none;align=center;verticalAlign=middle;whiteSpace=wrap;rounded=0;" vertex="1" parent="1">
          <mxGeometry x="190" y="270" width="40" height="20" as="geometry" />
        </mxCell>
        <mxCell id="1-RgJNKFQ16oBWKKwFck-20" value="Application server" style="text;html=1;strokeColor=none;fillColor=none;align=center;verticalAlign=middle;whiteSpace=wrap;rounded=0;" vertex="1" parent="1">
          <mxGeometry x="560" y="270" width="110" height="20" as="geometry" />
        </mxCell>
        <mxCell id="1-RgJNKFQ16oBWKKwFck-21" value="Database server" style="text;html=1;strokeColor=none;fillColor=none;align=center;verticalAlign=middle;whiteSpace=wrap;rounded=0;" vertex="1" parent="1">
          <mxGeometry x="370" y="500" width="110" height="20" as="geometry" />
        </mxCell>
      </root>
    </mxGraphModel>
  </diagram>
</mxfile>
